<svg viewBox="0 0 800 800" preserveAspectRatio="xMidYMid meet" style="font: 10px sans-serif;" version="1.1" xmlns="http://www.w3.org/2000/svg"><g id="circle" transform="translate(400,400)"><circle r="285.7142857142857" style="fill: none;"/><g class="group"><title>:Organization</title><path id="group0" d="M1.7494954273533616e-14,-285.7142857142857A285.7142857142857,285.7142857142857 0 0,1 283.06557798415537,38.81406474102593L259.2880694334863,35.55368330277975A261.7142857142857,261.7142857142857 0 0,0 1.6025378114556795e-14,-261.7142857142857Z" style="fill: rgb(31, 119, 180);"/><text dy=".35em" transform="rotate(-41.09613529815114)translate(287.7142857142857)">:Organization</text></g><g class="group"><title>:Country</title><path id="group1" d="M281.2870071077489,50.10262162392037A285.7142857142857,285.7142857142857 0 0,1 154.0466753593838,240.62891528647404L141.1067546291956,220.41608640241023A261.7142857142857,261.7142857142857 0 0,0 257.65889851069795,45.894001407511055Z" style="fill: rgb(174, 199, 232);"/><text dy=".35em" transform="rotate(33.736428523447955)translate(287.7142857142857)">:Country</text></g><g class="group"><title>:Tribe</title><path id="group2" d="M144.30086434150726,246.59666180124665A285.7142857142857,285.7142857142857 0 0,1 -35.60214586169147,283.4874605185692L-32.61156560930938,259.6745138350094A261.7142857142857,261.7142857142857 0 0,0 132.17959173682064,225.88254220994193Z" style="fill: rgb(255, 127, 14);"/><text dy=".35em" transform="rotate(78.41160911224023)translate(287.7142857142857)">:Tribe</text></g><g class="group"><title>:Continent</title><path id="group3" d="M-46.91014273875914,281.83699467857963A285.7142857142857,285.7142857142857 0 0,1 -101.742613073442,266.9851938707695L-93.19623357527287,244.55843758562483A261.7142857142857,261.7142857142857 0 0,0 -42.96969074870337,258.16268712557894Z" style="fill: rgb(255, 187, 120);"/><text dy=".35em" transform="rotate(105.15537264368794)translate(287.7142857142857)rotate(180)" style="text-anchor: end;">:Continent</text></g><g class="group"><title>:Habitat</title><path id="group4" d="M-112.33778997553138,262.70301483735943A285.7142857142857,285.7142857142857 0 0,1 -285.60036048426826,-8.067660905151845L-261.6099302035897,-7.38997738911909A261.7142857142857,261.7142857142857 0 0,0 -102.90141561758675,240.63596159102124Z" style="fill: rgb(44, 160, 44);"/><text dy=".35em" transform="rotate(147.38535999738778)translate(287.7142857142857)rotate(180)" style="text-anchor: end;">:Habitat</text></g><g class="group"><title>:Campaign</title><path id="group5" d="M-285.04929027025406,-19.48217589616092A285.7142857142857,285.7142857142857 0 0,1 -191.4639607533694,-212.0712257564819L-175.3809880500864,-194.25724279293743A261.7142857142857,261.7142857142857 0 0,0 -261.1051498875527,-17.845673120883404Z" style="fill: rgb(152, 223, 138);"/><text dy=".35em" transform="rotate(205.91663558503723)translate(287.7142857142857)rotate(180)" style="text-anchor: end;">:Campaign</text></g><g class="group"><title>:Threat</title><path id="group6" d="M-182.8302228883549,-219.55810770686415A285.7142857142857,285.7142857142857 0 0,1 -11.425524053324615,-285.48574476027943L-10.465780032845348,-261.50494220041594A261.7142857142857,261.7142857142857 0 0,0 -167.4724841657331,-201.11522665948755Z" style="fill: rgb(214, 39, 40);"/><text dy=".35em" transform="rotate(248.96168735043454)translate(287.7142857142857)rotate(180)" style="text-anchor: end;">:Threat</text></g><path class="chord" style="fill: rgb(214, 39, 40); fill-opacity: 0.67; stroke: rgb(0, 0, 0); stroke-width: 0.25px; cursor: pointer;" d="M-186.1448410792704,-183.96865354323802A261.7142857142857,261.7142857142857 0 0,1 -175.3809880500864,-194.25724279293743Q 0,0 -25.321026972426356,-260.48649281680696A261.7142857142857,261.7142857142857 0 0,1 -10.465780032845348,-261.50494220041594Q 0,0 -186.1448410792704,-183.96865354323802Z"/><path class="chord" style="fill: rgb(152, 223, 138); fill-opacity: 0.67; stroke: rgb(0, 0, 0); stroke-width: 0.25px; cursor: pointer;" d="M-201.15048326505888,-167.43013596474216A261.7142857142857,261.7142857142857 0 0,1 -186.1448410792704,-183.96865354323802Q 0,0 -201.15048326505888,-167.43013596474216Z"/><path class="chord" style="fill: rgb(44, 160, 44); fill-opacity: 0.67; stroke: rgb(0, 0, 0); stroke-width: 0.25px; cursor: pointer;" d="M-260.7568413719294,22.365979179844278A261.7142857142857,261.7142857142857 0 0,1 -261.6099302035897,-7.38997738911909Q 0,0 -260.7568413719294,22.365979179844278Z"/><path class="chord" style="fill: rgb(255, 127, 14); fill-opacity: 0.67; stroke: rgb(0, 0, 0); stroke-width: 0.25px; cursor: pointer;" d="M77.80039544473875,249.88290420831325A261.7142857142857,261.7142857142857 0 0,1 41.58704754681832,258.38901838754185Q 0,0 77.80039544473875,249.88290420831325Z"/><path class="chord" style="fill: rgb(44, 160, 44); fill-opacity: 0.67; stroke: rgb(0, 0, 0); stroke-width: 0.25px; cursor: pointer;" d="M41.58704754681832,258.38901838754185A261.7142857142857,261.7142857142857 0 0,1 4.533535445874691,261.67501677328653Q 0,0 -254.95190045390544,59.10918542731462A261.7142857142857,261.7142857142857 0 0,1 -260.7568413719294,22.365979179844278Q 0,0 41.58704754681832,258.38901838754185Z"/><path class="chord" style="fill: rgb(214, 39, 40); fill-opacity: 0.67; stroke: rgb(0, 0, 0); stroke-width: 0.25px; cursor: pointer;" d="M-61.99605446831609,-254.2653271236571A261.7142857142857,261.7142857142857 0 0,1 -25.321026972426356,-260.48649281680696Q 0,0 -61.99605446831609,-254.2653271236571Z"/><path class="chord" style="fill: rgb(174, 199, 232); fill-opacity: 0.67; stroke: rgb(0, 0, 0); stroke-width: 0.25px; cursor: pointer;" d="M187.12701686536752,-182.96952452801324A261.7142857142857,261.7142857142857 0 0,1 237.58820625602425,-109.75523493202346Q 0,0 141.1067546291956,220.41608640241023Q 0,0 187.12701686536752,-182.96952452801324Z"/><path class="chord" style="fill: rgb(255, 187, 120); fill-opacity: 0.67; stroke: rgb(0, 0, 0); stroke-width: 0.25px; cursor: pointer;" d="M237.58820625602425,-109.75523493202346A261.7142857142857,261.7142857142857 0 0,1 260.62334368106946,-23.871323286276578Q 0,0 -93.19623357527287,244.55843758562483Q 0,0 237.58820625602425,-109.75523493202346Z"/><path class="chord" style="fill: rgb(255, 187, 120); fill-opacity: 0.67; stroke: rgb(0, 0, 0); stroke-width: 0.25px; cursor: pointer;" d="M-220.445791318039,141.0603432474995A261.7142857142857,261.7142857142857 0 0,1 -254.95190045390544,59.10918542731462Q 0,0 -93.19623357527287,244.55843758562483Q 0,0 -220.445791318039,141.0603432474995Z"/><path class="chord" style="fill: rgb(255, 187, 120); fill-opacity: 0.67; stroke: rgb(0, 0, 0); stroke-width: 0.25px; cursor: pointer;" d="M-42.96969074870337,258.16268712557894A261.7142857142857,261.7142857142857 0 0,1 -93.19623357527287,244.55843758562483Q 0,0 -42.96969074870337,258.16268712557894Z"/><path class="chord" style="fill: rgb(255, 127, 14); fill-opacity: 0.67; stroke: rgb(0, 0, 0); stroke-width: 0.25px; cursor: pointer;" d="M-240.0597073119876,-104.23868894139848A261.7142857142857,261.7142857142857 0 0,1 -201.15048326505888,-167.43013596474216Q 0,0 4.533535445874691,261.67501677328653A261.7142857142857,261.7142857142857 0 0,1 -32.61156560930938,259.6745138350094Q 0,0 -240.0597073119876,-104.23868894139848Z"/><path class="chord" style="fill: rgb(174, 199, 232); fill-opacity: 0.67; stroke: rgb(0, 0, 0); stroke-width: 0.25px; cursor: pointer;" d="M187.20404815351225,182.89070971997523A261.7142857142857,261.7142857142857 0 0,1 141.1067546291956,220.41608640241023Q 0,0 187.20404815351225,182.89070971997523Z"/><path class="chord" style="fill: rgb(31, 119, 180); fill-opacity: 0.67; stroke: rgb(0, 0, 0); stroke-width: 0.25px; cursor: pointer;" d="M-261.1051498875527,-17.845673120883404A261.7142857142857,261.7142857142857 0 0,1 -240.0597073119876,-104.23868894139848Q 0,0 260.62334368106946,-23.871323286276578A261.7142857142857,261.7142857142857 0 0,1 259.2880694334863,35.55368330277975Q 0,0 -261.1051498875527,-17.845673120883404Z"/><path class="chord" style="fill: rgb(255, 187, 120); fill-opacity: 0.67; stroke: rgb(0, 0, 0); stroke-width: 0.25px; cursor: pointer;" d="M257.65889851069795,45.894001407511055A261.7142857142857,261.7142857142857 0 0,1 187.20404815351225,182.89070971997523Q 0,0 -93.19623357527287,244.55843758562483Q 0,0 257.65889851069795,45.894001407511055Z"/><path class="chord" style="fill: rgb(174, 199, 232); fill-opacity: 0.67; stroke: rgb(0, 0, 0); stroke-width: 0.25px; cursor: pointer;" d="M-102.90141561758675,240.63596159102124A261.7142857142857,261.7142857142857 0 0,1 -220.445791318039,141.0603432474995Q 0,0 141.1067546291956,220.41608640241023Q 0,0 -102.90141561758675,240.63596159102124Z"/><path class="chord" style="fill: rgb(255, 127, 14); fill-opacity: 0.67; stroke: rgb(0, 0, 0); stroke-width: 0.25px; cursor: pointer;" d="M-167.4724841657331,-201.11522665948755A261.7142857142857,261.7142857142857 0 0,1 -61.99605446831609,-254.2653271236571Q 0,0 132.17959173682064,225.88254220994193A261.7142857142857,261.7142857142857 0 0,1 77.80039544473875,249.88290420831325Q 0,0 -167.4724841657331,-201.11522665948755Z"/><path class="chord" style="fill: rgb(31, 119, 180); fill-opacity: 0.67; stroke: rgb(0, 0, 0); stroke-width: 0.25px; cursor: pointer;" d="M1.6025378114556795e-14,-261.7142857142857A261.7142857142857,261.7142857142857 0 0,1 187.12701686536752,-182.96952452801324Q 0,0 1.6025378114556795e-14,-261.7142857142857Z"/></g></svg>